<?xml version="1.0" encoding="utf-8"?>
<!-- Generator: Adobe Illustrator 25.4.1, SVG Export Plug-In . SVG Version: 6.00 Build 0)  -->
<svg version="1.1" id="Capa_1" xmlns="http://www.w3.org/2000/svg" xmlns:xlink="http://www.w3.org/1999/xlink" x="0px" y="0px"
	 viewBox="0 0 310 70" style="enable-background:new 0 0 310 70;" xml:space="preserve">
<style type="text/css">
	.st0{fill:#FF6900;}
	.st1{fill:#1D293D;}
</style>
<g>
	<polygon class="st0" points="66.1,309.3 29.5,309.3 29.5,281.1 23.9,281.1 23.9,313.8 66.1,313.8 	"/>
</g>
<g>
	<g>
		<path class="st0" d="M-102.6-0.3v70.5H-32V-0.3H-102.6z M-52.4,44.4l3.1-3.1c2.1-2.1,5.6-2.1,7.7,0l1.8,1.8V57L-52.4,44.4z
			 M-39.9,7.6v25.5c-1.7-0.8-3.6-1.2-5.6-1.2c-3.5,0-6.9,1.4-9.4,3.9l-3.1,3.1l-12.4-12.4c-5.2-5.2-13.6-5.2-18.8,0l-5.6,5.6V7.6
			H-39.9z M-94.7,43l11.1-11.1c2.1-2.1,5.6-2.1,7.7,0l30.5,30.5h-49.3V43z"/>
	</g>
</g>
<g>
	<path class="st1" d="M-88-100.2v67.1h67.1v-67.1H-88z M-40-57.9l2.7-2.7c0.9-0.9,2.1-1.4,3.4-1.4c1.3,0,2.5,0.5,3.4,1.4l1.6,1.6
		v12.2L-40-57.9z M-28.9-92.2V-69c-1.6-0.7-3.2-1-5-1c-3.4,0-6.6,1.3-9.1,3.8l-2.6,2.7l-11.6-11.6c-5-5-13.1-5-18.1,0l-4.7,4.7
		v-21.8H-28.9z M-80-59l10.4-10.4c1.9-1.9,4.9-1.9,6.8,0l28.2,28.2H-80V-59z"/>
</g>
<g>
	<path class="st1" d="M5.8,3.2v51.2h51.2V3.2H5.8z M43.2,35.3l1.4-1.4c1.1-1.1,2.9-1.1,4,0l0.9,0.9v6.8L43.2,35.3z M49.5,10.7V26
		c-3.5-1-7.4-0.1-10.1,2.6L37.9,30l-8-7.9c-4-4-10.5-4-14.5,0l-2.1,2.1V10.7H49.5z M13.2,34.8l7.4-7.4c1.1-1.1,2.9-1.1,4,0
		l19.6,19.6h-31V34.8z"/>
	<g>
		<g>
			<path class="st1" d="M72.5,54.3h-7.8V19.8h7.8V54.3z"/>
			<path class="st1" d="M133.4,54.3h-8.2V32.8c0-4.5-2-6.7-5.9-6.7c-2.3,0-4.1,0.8-5.5,2.5s-2.1,4.2-2.1,7.6v18.1h-8.3V32.8
				c0-4.5-1.9-6.8-5.6-6.8c-2.3,0-4.2,0.9-5.7,2.7s-2.3,4.3-2.3,7.5v18.1h-8V19.8h7.6v7.3c2.5-5.4,6.3-8.1,11.5-8.1
				c5.1,0,8.4,2.7,9.9,8.1c2.8-5.4,6.6-8.1,11.5-8.1c3.3,0,6,1,8,3.1s3,4.6,3,7.7v24.5H133.4z"/>
			<path class="st1" d="M172.3,54.3h-7.4c-0.7-2.1-1.1-4.4-1.2-7c-2.1,5.1-6,7.7-11.7,7.7c-3.4,0-6.2-1-8.3-3s-3.1-4.6-3.1-7.6
				c0-7.9,7-11.9,20.9-11.9c0.5,0,1.3,0,2.2,0V30c0-3.6-2.4-5.4-7.3-5.4c-4.7,0-7.4,1.8-8.1,5.4l-6.6-1c0.4-2.9,1.8-5.2,4.4-7.1
				s6.4-2.8,11.3-2.8c2.7,0,4.8,0.2,6.5,0.7c1.7,0.4,3.1,1.2,4.3,2.3s2,2.2,2.4,3.5c0.4,1.2,0.7,3.3,0.7,6.3v15.6
				C171.2,49.6,171.6,51.9,172.3,54.3z M163.6,36.8c-10.1,0-15.1,2.4-15.1,7.2c0,1.4,0.5,2.7,1.5,3.7s2.5,1.5,4.6,1.5
				c3,0,5.2-0.9,6.7-2.8s2.3-4,2.3-6.4V36.8z"/>
			<path class="st1" d="M212,13.2v6h-2.4c-1,0-2,0.1-2.8,0.4c-0.8,0.3-1.6,1.1-2.3,2.4c2.7,2.2,4.1,4.7,4.1,7.5
				c0,3.1-1.3,5.6-3.8,7.6c-2.6,2-6,3-10.2,3c-1.8,0-4-0.3-6.4-0.9c-1.6,0.7-2.4,1.9-2.4,3.4c0,0.8,0.4,1.6,1.2,2.3
				c0.8,0.7,1.9,1.1,3.5,1.1h10.3c3.5,0,6.3,0.9,8.3,2.7c2,1.8,3,4.1,3,6.8c0,3.3-1.5,6-4.5,8.1s-7.5,3.2-13.4,3.2
				c-11.1,0-16.7-3.1-16.7-9.3c0-3.1,1.7-5.4,5-7c-2.1-1.8-3.2-3.7-3.2-5.7c0-3,1.8-5.4,5.5-7.2c-3.2-1.9-4.8-4.6-4.8-8
				c0-2.9,1.2-5.3,3.5-7.3s5.9-3,10.7-3c2.2,0,4.4,0.2,6.7,0.7c1-4.4,3.8-6.6,8.3-6.6h2.8V13.2z M185.8,52.4c-1.1,1-1.7,2-1.7,3
				c0,1.6,0.9,3,2.8,4.2c1.9,1.2,4.8,1.8,8.9,1.8c6,0,9-1.5,9-4.6c0-1.1-0.5-2-1.6-2.6c-1-0.6-2.2-0.9-3.6-0.9h-8.3
				C189.8,53.3,188,53,185.8,52.4z M194.3,35.4c4.2,0,6.4-2,6.4-6c0-1.5-0.5-2.8-1.6-3.9c-1.1-1-2.6-1.6-4.6-1.6
				c-2.1,0-3.6,0.5-4.8,1.6S188,28,188,29.6c0,1.7,0.6,3.1,1.7,4.1C190.8,34.9,192.4,35.4,194.3,35.4z"/>
			<path class="st1" d="M238.8,43.3l7,1c-0.9,3.1-2.7,5.7-5.3,7.7c-2.6,2-6,3-9.9,3c-4.8,0-8.6-1.6-11.6-4.8s-4.4-7.6-4.4-13.1
				c0-5.2,1.5-9.5,4.4-13s6.9-5.1,12-5.1c4.9,0,8.7,1.7,11.4,5.1c2.7,3.4,4,7.7,4,13V38h-23.7c0,2.3,0.2,4.2,0.7,5.6
				c0.4,1.4,1.3,2.6,2.6,3.7c1.3,1,3,1.6,5,1.6C234.8,48.9,237.4,47.1,238.8,43.3z M238.3,33c0-2.5-0.8-4.5-2.2-6.1
				s-3.3-2.4-5.5-2.4c-2.1,0-3.9,0.7-5.4,2.2c-1.4,1.5-2.3,3.5-2.5,6.2L238.3,33L238.3,33z"/>
			<path class="st1" d="M261.3,54.3h-7.8V19.8h7V28c1-3.2,2.4-5.6,4.1-7c1.8-1.5,3.6-2.2,5.4-2.2c0.2,0,0.6,0,1,0v8.4
				c-4,0-6.6,1.3-7.9,3.8s-1.9,5-1.9,7.3L261.3,54.3L261.3,54.3z"/>
			<path class="st1" d="M304.2,19.8l-13.4,39.3c-0.8,2.4-1.9,4.3-3.4,5.6c-1.4,1.3-3.4,2-6,2c-1,0-2.5-0.1-4.5-0.2v-6.2l3.7,0.1
				c1.6,0,2.9-0.3,3.6-0.8c0.8-0.5,1.4-1.5,1.9-2.9s0.7-2.2,0.7-2.4c0-0.1-0.2-0.8-0.7-2.1l-11.9-32.4h8.2l8.4,22.8l7.2-22.8
				C298,19.8,304.2,19.8,304.2,19.8z"/>
		</g>
		<path class="st0" d="M68.5,13.2L68.5,13.2c-2.8,0-5-2.2-5-5l0,0c0-2.8,2.2-5,5-5l0,0c2.8,0,5,2.2,5,5l0,0
			C73.5,11,71.2,13.2,68.5,13.2z"/>
	</g>
</g>
</svg>
