<?xml version="1.0" encoding="utf-8"?>
<!-- Generator: Adobe Illustrator 25.4.1, SVG Export Plug-In . SVG Version: 6.00 Build 0)  -->
<svg version="1.1" id="Capa_1" xmlns="http://www.w3.org/2000/svg" xmlns:xlink="http://www.w3.org/1999/xlink" x="0px" y="0px"
	 viewBox="0 0 310 70" style="enable-background:new 0 0 310 70;" xml:space="preserve">
<style type="text/css">
	.st0{fill:#1D293D;}
	.st1{fill:#FF6900;}
</style>
<path class="st0" d="M96.5,18.1c-3.8,0-5.8,2.1-7.7,5.6c-0.9-3.8-3-5.6-6.2-5.6c-3.8,0-5.8,2.1-7.5,5.1h-0.1l-0.5-4.3h-4.4v32.7h5.5
	V27.9c1.6-3.4,3.1-5,5.4-5s3.4,1.9,3.4,5.7v23h5.1V27.9c1.7-3.4,3-5,5.2-5s3.5,1.9,3.5,5.7v23h5.5V28.1
	C103.8,21.6,101.1,18.1,96.5,18.1z"/>
<path class="st0" d="M128,18.1c-5.7,0-11.2,2.6-14.6,4.7l2.2,3.8c3-1.9,7.2-3.9,11.4-3.9c6.3,0,8.5,3.8,8.7,8.2
	c-16.9,1.3-23.7,4.9-23.7,12.2c0,5.8,5,9.3,11.2,9.3c4.6,0,9.3-2.4,12.8-5.2h0.2l0.5,4.4h4.6v-20C141.3,23.4,136.9,18.1,128,18.1z
	 M135.7,43c-3.8,3.1-7.4,4.8-11.1,4.8s-7.1-1.5-7.1-5.2c0-4.3,4.2-7,18.2-8.1V43z"/>
<path class="st0" d="M172.5,47.5h-7.3c-4.3,0-6.8-1.2-6.8-3.8c0-1.5,0.9-2.8,2.6-3.8c1.7,0.8,3.6,1.2,5.5,1.2
	c7.1,0,12.6-4.2,12.6-11.2c-0.1-2.5-1.1-4.8-2.8-6.6h8.5v-4.5h-13.5c-1.5-0.6-3.2-0.8-4.8-0.8c-6.9,0-12.8,4.6-12.8,11.7
	c-0.1,3.3,1.4,6.4,4,8.5v0.3c-2.5,1.7-3.9,4-3.9,6.1c0,2.3,1.3,4.4,3.4,5.4v0.3c-3.5,2-5.4,4.6-5.4,7.3c0,5.8,5.5,9.1,15.1,9.1
	c11.1,0,18.1-5.3,18.1-11.4C185,49.6,180.9,47.5,172.5,47.5z M166.5,22.1c4.1,0,7.4,3.2,7.5,7.3c0,0.1,0,0.2,0,0.4
	c0.2,4.2-3.1,7.6-7.3,7.8s-7.6-3.1-7.8-7.3c0-0.2,0-0.4,0-0.5c-0.1-4.1,3.1-7.5,7.2-7.7C166.2,22.1,166.4,22.1,166.5,22.1
	L166.5,22.1z M167.3,62.6c-7,0-10.7-2.2-10.7-5.6c0-1.9,1.1-3.8,4.2-5.5c1.6,0.4,3.3,0.6,5,0.5h6.4c5,0,7.5,0.9,7.5,4
	C179.5,59.4,174.8,62.6,167.3,62.6L167.3,62.6z"/>
<path class="st0" d="M208.5,18.1c-8.7,0-16.7,6.5-16.7,17.1c0,10.9,7.8,17.2,17.6,17.2c4.5,0,8.9-1.4,12.6-3.9l-2-3.6
	c-2.9,2-6.4,3.1-9.9,3.1c-6.8,0-12-3.8-12.7-11.2h25.7c0.2-1.1,0.3-2.2,0.3-3.4C223.4,24.2,217.9,18.1,208.5,18.1z M208.6,22.4
	c5.6,0,9.3,3.3,9.8,10h-20.8C198.6,26,203.3,22.4,208.6,22.4z"/>
<path class="st0" d="M242.6,26.6h-0.1l-0.5-7.7h-4.6v32.7h5.6V32.4c3.9-6.9,8.5-9.4,13.4-9.4c2.1,0,4.1,0.3,6,1.1l1.3-4.8
	c-2-1-4.2-1.4-6.5-1.4C251.2,18.1,246.1,21.3,242.6,26.6z"/>
<path class="st0" d="M299.6,18.9l-7,18c-1.1,3-2.4,6.4-3.5,9.5h-0.3c-1.3-3.2-2.8-6.6-4-9.5l-7.9-18h-5.6l15.2,32.7l-0.9,2.4
	c-1.6,4-4.4,6.9-8.9,6.9c-1,0-2-0.2-3-0.5l-1.1,4.4c1.4,0.4,2.8,0.7,4.3,0.7c7.5,0,11.4-4.9,13.9-11.4L305,18.9H299.6z"/>
<polygon class="st0" points="32,21.2 10.6,21.2 10.6,23.4 32,23.4 47.1,23.4 47.1,51.5 52.7,51.5 52.7,18.9 32,18.9 "/>
<ellipse class="st1" cx="49.4" cy="7.7" rx="4.4" ry="4.3"/>
<polygon class="st0" points="10.6,62.1 10.6,33.9 5,33.9 5,66.6 25.7,66.6 25.7,64.3 47.1,64.3 47.1,62.1 25.7,62.1 "/>
</svg>
