<svg id="Capa_1" data-name="Capa 1" xmlns="http://www.w3.org/2000/svg" viewBox="0 0 310 70"><defs><style>.cls-1{fill:#fff;}</style></defs><path class="cls-1" d="M96.54,18.06c-3.77,0-5.78,2.15-7.67,5.65-.94-3.76-3-5.65-6.18-5.65-3.76,0-5.78,2.09-7.46,5.11H75.1l-.47-4.3H70.19V51.53H75.7V27.88c1.61-3.36,3.09-5,5.38-5s3.36,1.94,3.36,5.71v23h5.11V27.88c1.74-3.36,3-5,5.24-5s3.49,1.94,3.49,5.71v23h5.51V28.14C103.79,21.63,101.11,18.06,96.54,18.06Z"/><path class="cls-1" d="M128,18.06c-5.72,0-11.23,2.56-14.59,4.71l2.22,3.76c3-1.88,7.19-3.9,11.42-3.9,6.32,0,8.47,3.77,8.67,8.2C118.84,32.18,112,35.74,112,43.07c0,5.84,5,9.27,11.16,9.27,4.57,0,9.27-2.42,12.83-5.24h.2l.48,4.43h4.63v-20C141.29,23.37,136.92,18.06,128,18.06ZM135.71,43c-3.76,3.09-7.39,4.84-11.08,4.84s-7.13-1.48-7.13-5.18c0-4.3,4.23-7,18.21-8.13Z"/><path class="cls-1" d="M172.54,47.5h-7.32c-4.31,0-6.79-1.21-6.79-3.76,0-1.55.94-2.76,2.55-3.77a14.06,14.06,0,0,0,5.51,1.21c7.06,0,12.64-4.23,12.64-11.22a9.88,9.88,0,0,0-2.76-6.59h8.47v-4.5H171.33a13.19,13.19,0,0,0-4.84-.81c-6.92,0-12.83,4.57-12.83,11.7a10.41,10.41,0,0,0,4,8.47v.26c-2.49,1.69-3.9,4-3.9,6.12A5.91,5.91,0,0,0,157.15,50v.27c-3.49,2-5.38,4.63-5.38,7.26,0,5.78,5.52,9.07,15.06,9.07,11.09,0,18.15-5.31,18.15-11.43C185,49.65,180.94,47.5,172.54,47.5Zm-6-25.4A7.38,7.38,0,0,1,174,29.76a7.53,7.53,0,1,1-15.05,0A7.41,7.41,0,0,1,166.49,22.1Zm.74,40.46c-7,0-10.68-2.15-10.68-5.58,0-1.88,1.07-3.77,4.16-5.45a18.22,18.22,0,0,0,5,.54h6.38c5,0,7.46.88,7.46,4C179.53,59.4,174.83,62.56,167.23,62.56Z"/><path class="cls-1" d="M208.49,18.06c-8.73,0-16.66,6.46-16.66,17.07,0,10.89,7.79,17.21,17.61,17.21a22.38,22.38,0,0,0,12.63-3.9l-2-3.63a17.82,17.82,0,0,1-9.95,3.09c-6.78,0-12-3.75-12.7-11.15h25.74a23.57,23.57,0,0,0,.26-3.36C223.41,24.18,217.9,18.06,208.49,18.06Zm.14,4.37c5.57,0,9.27,3.32,9.75,10H197.55C198.58,26,203.28,22.43,208.63,22.43Z"/><path class="cls-1" d="M242.63,26.6h-.13L242,18.87h-4.64V51.53h5.58V32.45c3.9-6.86,8.54-9.35,13.44-9.35a16.33,16.33,0,0,1,6.05,1.08l1.28-4.77a13.72,13.72,0,0,0-6.45-1.35C251.17,18.06,246.06,21.29,242.63,26.6Z"/><path class="cls-1" d="M299.62,18.87l-7.05,18c-1.08,3-2.36,6.39-3.5,9.48h-.27c-1.34-3.16-2.75-6.59-4-9.48l-7.93-18h-5.65L286.38,51.6,285.44,54c-1.61,4-4.37,6.92-8.94,6.92a10.41,10.41,0,0,1-2.95-.47l-1.15,4.44a13.91,13.91,0,0,0,4.3.67c7.46,0,11.43-4.91,13.85-11.36L305,18.87Z"/><polygon class="cls-1" points="32.02 21.2 10.58 21.2 10.58 23.37 32.02 23.37 47.14 23.37 47.14 51.53 52.72 51.53 52.72 18.87 32.02 18.87 32.02 21.2"/><ellipse class="cls-1" cx="49.36" cy="7.71" rx="4.44" ry="4.3"/><polygon class="cls-1" points="10.58 62.09 10.58 33.92 5 33.92 5 66.59 25.7 66.59 25.7 64.26 47.14 64.26 47.14 62.09 25.7 62.09 10.58 62.09"/></svg>